<svg width="23" height="27" viewBox="0 0 23 27" fill="none" xmlns="http://www.w3.org/2000/svg">
<path d="M13.7344 21.375H14.9531C15.2578 21.375 15.5625 21.1211 15.5625 20.7656V9.79688C15.5625 9.49219 15.2578 9.1875 14.9531 9.1875H13.7344C13.3789 9.1875 13.125 9.49219 13.125 9.79688V20.7656C13.125 21.1211 13.3789 21.375 13.7344 21.375ZM22.0625 4.3125H17.8477L16.1211 1.46875C15.7148 0.808594 14.8008 0.25 14.0391 0.25H8.91016C8.14844 0.25 7.23438 0.808594 6.82812 1.46875L5.10156 4.3125H0.9375C0.480469 4.3125 0.125 4.71875 0.125 5.125V5.9375C0.125 6.39453 0.480469 6.75 0.9375 6.75H1.75V23.8125C1.75 25.1836 2.81641 26.25 4.1875 26.25H18.8125C20.1328 26.25 21.25 25.1836 21.25 23.8125V6.75H22.0625C22.4688 6.75 22.875 6.39453 22.875 5.9375V5.125C22.875 4.71875 22.4688 4.3125 22.0625 4.3125ZM8.80859 2.83984C8.85938 2.78906 9.01172 2.6875 9.0625 2.6875H9.11328H13.8867C13.9375 2.6875 14.0898 2.78906 14.1406 2.83984L15.0039 4.3125H7.94531L8.80859 2.83984ZM18.8125 23.8125H4.1875V6.75H18.8125V23.8125ZM8.04688 21.375H9.26562C9.57031 21.375 9.875 21.1211 9.875 20.7656V9.79688C9.875 9.49219 9.57031 9.1875 9.26562 9.1875H8.04688C7.69141 9.1875 7.4375 9.49219 7.4375 9.79688V20.7656C7.4375 21.1211 7.69141 21.375 8.04688 21.375Z" fill="#2E569F"/>
</svg>
