<svg width="38" height="38" viewBox="0 0 38 38" fill="none" xmlns="http://www.w3.org/2000/svg">
<path d="M34.9857 24.122C33.7263 23.0154 32.1991 22.0592 30.4459 21.2802C29.6965 20.9474 28.8195 21.2848 28.4867 22.034C28.1538 22.7831 28.4913 23.6601 29.2404 23.9932C30.7187 24.6502 31.9926 25.4437 33.0262 26.352C34.3004 27.4717 35.0312 29.0929 35.0312 30.8008V33.5469C35.0312 34.3653 34.3653 35.0312 33.5469 35.0312H4.45312C3.63469 35.0312 2.96875 34.3653 2.96875 33.5469V30.8008C2.96875 29.0929 3.69963 27.4717 4.97382 26.352C6.47356 25.034 10.8432 21.9688 19 21.9688C25.0567 21.9688 29.9844 17.041 29.9844 10.9844C29.9844 4.92772 25.0567 0 19 0C12.9433 0 8.01562 4.92772 8.01562 10.9844C8.01562 14.5251 9.70004 17.6794 12.3093 19.6894C7.53494 20.7389 4.56503 22.7591 3.01427 24.122C1.09879 25.8049 0 28.2391 0 30.8008V33.5469C0 36.0025 1.99753 38 4.45312 38H33.5469C36.0025 38 38 36.0025 38 33.5469V30.8008C38 28.2391 36.9012 25.8049 34.9857 24.122ZM10.9844 10.9844C10.9844 6.56459 14.5802 2.96875 19 2.96875C23.4198 2.96875 27.0156 6.56459 27.0156 10.9844C27.0156 15.4042 23.4198 19 19 19C14.5802 19 10.9844 15.4042 10.9844 10.9844Z" fill="#333440"/>
</svg>
