<svg width="120" height="118" viewBox="0 0 120 118" fill="none" xmlns="http://www.w3.org/2000/svg">
<path d="M38.2797 92.3381C31.3607 92.3381 25.752 97.9471 25.752 104.866C25.752 111.785 31.3609 117.394 38.2797 117.394C45.1988 117.394 50.8075 111.785 50.8075 104.866C50.8078 97.9471 45.1988 92.3381 38.2797 92.3381ZM38.2797 111.826C34.4359 111.826 31.3199 108.71 31.3199 104.866C31.3199 101.022 34.4359 97.9064 38.2797 97.9064C42.1236 97.9064 45.2395 101.022 45.2395 104.866C45.2398 108.71 42.1236 111.826 38.2797 111.826Z" fill="#333440"/>
<path d="M91.1762 92.3381C84.2572 92.3381 78.6484 97.9471 78.6484 104.866C78.6484 111.785 84.2574 117.394 91.1762 117.394C98.095 117.394 103.704 111.785 103.704 104.866C103.704 97.9471 98.0953 92.3381 91.1762 92.3381ZM91.1762 111.826C87.3324 111.826 84.2164 108.71 84.2164 104.866C84.2164 101.022 87.3324 97.9064 91.1762 97.9064C95.0201 97.9064 98.136 101.022 98.136 104.866C98.1363 108.71 95.0201 111.826 91.1762 111.826Z" fill="#333440"/>
<path d="M119.432 19.2589C118.853 18.6256 118.06 18.2292 117.205 18.1452L26.587 16.8925L24.0815 9.23645C22.3163 4.11849 17.5237 0.663363 12.1103 0.606079H2.78398C1.24638 0.606079 0 1.85246 0 3.39006C0 4.92766 1.24638 6.17404 2.78398 6.17404H12.1103C15.1372 6.24092 17.8027 8.18456 18.7919 11.0461L36.4702 64.3592L35.0783 67.5607C33.5258 71.5642 33.9921 76.0701 36.3311 79.671C38.6478 83.2076 42.5452 85.3903 46.7711 85.5174H100.92C102.457 85.5174 103.703 84.271 103.703 82.7334C103.703 81.1958 102.457 79.9494 100.92 79.9494H46.7708C44.3844 79.8897 42.1876 78.6343 40.9244 76.6086C39.6754 74.6077 39.4188 72.1426 40.2285 69.9269L41.3422 67.4214L99.9449 61.2966C106.382 60.5876 111.677 55.9058 113.169 49.6038L119.851 21.6249C120.152 20.8192 119.992 19.913 119.432 19.2589ZM107.74 48.3513C106.836 52.408 103.392 55.4003 99.249 55.7289L41.3422 61.7143L28.3967 22.4604L113.725 23.7132L107.74 48.3513Z" fill="#333440"/>
</svg>
