<svg width="38" height="38" viewBox="0 0 38 38" fill="none" xmlns="http://www.w3.org/2000/svg">
<path d="M36.5156 26.125C37.3354 26.125 38 25.4604 38 24.6406V11.2812C38 10.4614 37.3354 9.79688 36.5156 9.79688H27.1641V8.16406C27.1641 3.6624 23.5017 0 19 0C14.4983 0 10.8359 3.6624 10.8359 8.16406V9.79688H1.48438C0.664555 9.79688 0 10.4614 0 11.2812V32.0625C0 35.3364 2.66356 38 5.9375 38H32.0625C35.3364 38 38 35.3364 38 32.0625C38 31.2427 37.3354 30.5781 36.5156 30.5781C35.6958 30.5781 35.0312 31.2427 35.0312 32.0625C35.0312 33.6995 33.6995 35.0312 32.0625 35.0312H5.9375C4.30053 35.0312 2.96875 33.6995 2.96875 32.0625V12.7656H10.8359V18.332C10.8359 19.1519 11.5005 19.8164 12.3203 19.8164C13.1401 19.8164 13.8047 19.1519 13.8047 18.332V8.16406C13.8047 5.29937 16.1352 2.96875 19 2.96875C21.8648 2.96875 24.1953 5.29937 24.1953 8.16406V9.79688H18.2578C17.438 9.79688 16.7734 10.4614 16.7734 11.2812C16.7734 12.1011 17.438 12.7656 18.2578 12.7656H24.1953V18.332C24.1953 19.1519 24.8599 19.8164 25.6797 19.8164C26.4995 19.8164 27.1641 19.1519 27.1641 18.332V12.7656H35.0312V24.6406C35.0312 25.4604 35.6958 26.125 36.5156 26.125Z" fill="#333440"/>
</svg>
