<svg width="68" height="68" viewBox="0 0 68 68" fill="none" xmlns="http://www.w3.org/2000/svg">
<path d="M30.869 3.93794C32.4704 1.92377 35.5296 1.92377 37.131 3.93794L40.9627 8.75723C41.8992 9.93509 43.4175 10.4877 44.892 10.1874L50.9251 8.95857C53.4465 8.44501 55.7899 10.4114 55.722 12.9837L55.5595 19.1385C55.5198 20.6427 56.3276 22.042 57.6502 22.7597L63.0617 25.6964C65.3233 26.9237 65.8545 29.9363 64.149 31.8632L60.0683 36.4736C59.071 37.6004 58.7904 39.1916 59.3422 40.5915L61.6 46.3195C62.5436 48.7135 61.0141 51.3627 58.469 51.7425L52.3795 52.6513C50.8912 52.8734 49.6535 53.9119 49.1763 55.3391L47.224 61.1782C46.408 63.6187 43.5334 64.6649 41.3397 63.32L36.0907 60.1018C34.8079 59.3153 33.1921 59.3153 31.9093 60.1018L26.6603 63.32C24.4666 64.6649 21.592 63.6187 20.776 61.1782L18.8237 55.3391C18.3465 53.9119 17.1088 52.8734 15.6205 52.6513L9.53098 51.7425C6.98595 51.3627 5.45639 48.7135 6.4 46.3195L8.65777 40.5915C9.20958 39.1916 8.92901 37.6004 7.93166 36.4736L3.85096 31.8632C2.14548 29.9363 2.67668 26.9237 4.93833 25.6964L10.3498 22.7597C11.6724 22.042 12.4802 20.6427 12.4405 19.1385L12.278 12.9837C12.2101 10.4114 14.5535 8.44501 17.0749 8.95857L23.108 10.1874C24.5825 10.4877 26.1008 9.93509 27.0373 8.75723L30.869 3.93794Z" fill="#2E569F"/>
<g clip-path="url(#clip0)">
<path d="M29.9278 39.2151L34.071 26.7854C34.2244 26.3249 33.9756 25.8271 33.5151 25.6736C33.0547 25.5202 32.5568 25.769 32.4033 26.2295L28.2602 38.6592C28.1067 39.1197 28.3556 39.6174 28.816 39.7709C28.9082 39.8016 29.002 39.8162 29.0941 39.8162C29.462 39.8163 29.805 39.5834 29.9278 39.2151Z" fill="white"/>
<path d="M36.1348 35.3594C37.5887 35.3594 38.7715 34.1765 38.7715 32.7227C38.7715 31.2688 37.5887 30.0859 36.1348 30.0859C34.6809 30.0859 33.498 31.2688 33.498 32.7227C33.498 34.1765 34.6809 35.3594 36.1348 35.3594ZM36.1348 31.8437C36.6194 31.8437 37.0137 32.238 37.0137 32.7227C37.0137 33.2073 36.6194 33.6016 36.1348 33.6016C35.6501 33.6016 35.2559 33.2073 35.2559 32.7227C35.2559 32.238 35.6501 31.8437 36.1348 31.8437Z" fill="white"/>
<path d="M26.1934 30.0859C24.7395 30.0859 23.5566 31.2688 23.5566 32.7227C23.5566 34.1765 24.7395 35.3594 26.1934 35.3594C27.6472 35.3594 28.8301 34.1765 28.8301 32.7227C28.8301 31.2688 27.6473 30.0859 26.1934 30.0859ZM26.1934 33.6016C25.7087 33.6016 25.3145 33.2073 25.3145 32.7227C25.3145 32.238 25.7087 31.8437 26.1934 31.8437C26.678 31.8437 27.0723 32.238 27.0723 32.7227C27.0723 33.2073 26.678 33.6016 26.1934 33.6016Z" fill="white"/>
<path d="M47.8242 29.8987L44.7593 25.8122L44.8789 24.9753C44.918 24.7014 44.826 24.4251 44.6303 24.2295L42.7659 22.365L44.6303 20.5006C44.9735 20.1574 44.9735 19.6009 44.6303 19.2576C44.2871 18.9144 43.7305 18.9144 43.3873 19.2576L41.5229 21.1221L39.6585 19.2576C39.4629 19.062 39.1865 18.9702 38.9127 19.009L30.2119 20.252C30.0237 20.2789 29.8492 20.3661 29.7147 20.5006L18.9424 31.2729C17.6859 32.5294 17.6859 34.574 18.9424 35.8305L28.0574 44.9455C28.2439 45.132 28.448 45.2901 28.664 45.4212V45.7776C28.664 47.5546 30.1097 49.0002 31.8867 49.0002H44.7773C46.5543 49.0002 48 47.5546 48 45.7776V30.426C48 30.2359 47.9383 30.0508 47.8242 29.8987ZM20.1854 34.5875C19.6142 34.0163 19.6142 33.0871 20.1854 32.5159L30.7505 21.9507L38.7262 20.8114L40.2799 22.3651L39.037 23.608L38.4155 22.9865C38.0723 22.6434 37.5157 22.6434 37.1725 22.9865C36.8293 23.3297 36.8293 23.8862 37.1725 24.2295L39.6585 26.7154C39.8301 26.8871 40.055 26.9729 40.2799 26.9729C40.5048 26.9729 40.7298 26.8871 40.9013 26.7154C41.2446 26.3723 41.2446 25.8157 40.9013 25.4725L40.2798 24.851L41.5228 23.608L43.0765 25.1618L41.9371 33.1374L31.372 43.7026C31.0953 43.9793 30.7275 44.1316 30.3362 44.1316C29.9449 44.1316 29.5771 43.9792 29.3004 43.7026L20.1854 34.5875ZM46.2422 45.7776C46.2422 46.5853 45.585 47.2424 44.7773 47.2424H31.8867C31.1154 47.2424 30.4819 46.6431 30.4263 45.8857C31.2212 45.8637 32.0096 45.5509 32.6149 44.9455L43.3872 34.1732C43.5217 34.0387 43.609 33.8643 43.6359 33.676L44.4077 28.2731L46.2422 30.719V45.7776Z" fill="white"/>
</g>
<defs>
<clipPath id="clip0">
<rect width="30" height="30" fill="white" transform="translate(18 19)"/>
</clipPath>
</defs>
</svg>
