<svg width="26" height="26" viewBox="0 0 26 26" fill="none" xmlns="http://www.w3.org/2000/svg">
<path d="M24.375 7.29648H19.2335C19.6024 7.0446 19.9193 6.79435 20.1402 6.5701C21.45 5.25223 21.45 3.10723 20.1402 1.78935C18.8679 0.508854 16.6481 0.507229 15.3741 1.78935C14.6705 2.49623 12.8001 5.3741 13.0585 7.29648H12.9415C13.1983 5.3741 11.3295 2.49623 10.6259 1.78935C9.35188 0.507229 7.13212 0.508854 5.85975 1.78935C4.55 3.10723 4.55 5.25223 5.85813 6.5701C6.08075 6.79435 6.39762 7.0446 6.7665 7.29648H1.625C0.729625 7.29648 0 8.0261 0 8.92148V12.984C0 13.4325 0.364 13.7965 0.8125 13.7965H1.625V23.5465C1.625 24.4419 2.35462 25.1715 3.25 25.1715H22.75C23.6454 25.1715 24.375 24.4419 24.375 23.5465V13.7965H25.1875C25.636 13.7965 26 13.4325 26 12.984V8.92148C26 8.0261 25.2704 7.29648 24.375 7.29648ZM7.01188 2.93498C7.34175 2.60348 7.77887 2.42148 8.24362 2.42148C8.70675 2.42148 9.14388 2.60348 9.47375 2.93498C10.569 4.03673 11.6578 6.85123 11.2791 7.24285C11.2791 7.24285 11.2109 7.29648 10.9785 7.29648C9.85563 7.29648 7.71225 6.12973 7.01188 5.42448C6.331 4.73873 6.331 3.62073 7.01188 2.93498ZM12.1875 23.5465H3.25V13.7965H12.1875V23.5465ZM12.1875 12.1715H1.625V8.92148H10.9785H12.1875V12.1715ZM16.5263 2.93498C17.186 2.2736 18.33 2.27523 18.9881 2.93498C19.669 3.62073 19.669 4.73873 18.9881 5.42448C18.2878 6.12973 16.1444 7.29648 15.0215 7.29648C14.7891 7.29648 14.7209 7.24448 14.7192 7.24285C14.3422 6.85123 15.431 4.03673 16.5263 2.93498ZM22.75 23.5465H13.8125V13.7965H22.75V23.5465ZM24.375 12.1715H13.8125V8.92148H15.0215H24.375V12.1715Z" fill="white"/>
</svg>
